<svg xmlns="http://www.w3.org/2000/svg" xml:space="preserve" width="287.96" height="287.998">
    <path d="m281.167 767.773-.018.306-.234.132c-4.578 2.778-10.59 4.338-16.458 4.464-.12.78-.858 6.282-.948 7.068 5.616 1.59 10.998 4.638 14.766 8.544l.198.18-.054.3c-.282 2.094-1.074 5.01-1.794 6.78l-.126.264-.282.072c-5.166 1.476-11.346 1.434-17.028 0-.27.726-2.37 5.796-2.67 6.51 4.998 3.048 9.39 7.374 12.024 12.06l.144.222-.108.294c-.756 1.8-2.28 4.416-3.492 6.066l-.168.228h-.312c-5.316.114-11.25-1.512-16.482-4.332-.462.642-3.87 5.076-4.332 5.694 4.08 4.206 7.188 9.534 8.526 14.748l.078.294-.198.222c-1.218 1.596-3.33 3.75-4.92 5.004l-.222.162-.3-.042c-5.226-1.326-10.53-4.452-14.748-8.508a742.71 742.71 0 0 0-5.706 4.476c2.82 4.968 4.47 10.722 4.47 16.026 0 .144-.03.714-.03.714l-.222.174c-1.632 1.278-4.218 2.76-6.09 3.522l-.258.096-.24-.132c-4.686-2.604-8.988-6.966-12.006-11.97-.756.294-6.138 2.556-6.846 2.862.708 2.82 1.152 5.718 1.152 8.616 0 2.922-.354 5.79-1.152 8.394l-.066.27-.288.108c-1.776.762-4.614 1.542-6.714 1.848l-.312.048-.186-.204c-3.882-3.762-6.924-9.12-8.538-14.742-.798.132-6.36.822-7.206.912-.078 5.826-1.644 11.79-4.416 16.428l-.138.27-.294.012c-2.01.252-5.052.252-7.014 0l-.312-.012-.138-.27c-2.748-4.584-4.302-10.554-4.404-16.41-.81-.108-6.456-.798-7.278-.93-1.614 5.652-4.668 11.034-8.526 14.772l-.216.222-.318-.048c-2.082-.312-4.956-1.08-6.738-1.806l-.264-.114-.108-.27c-.726-2.646-1.116-5.556-1.116-8.496 0-2.844.45-5.766 1.116-8.556-.708-.306-6.132-2.64-6.858-2.934-3.048 5.004-7.356 9.396-12.036 12.036l-.252.15-.294-.102c-1.8-.786-4.404-2.292-6.048-3.528l-.258-.156v-.774c0-5.25 1.626-11.022 4.422-16.026-.612-.504-4.692-3.696-5.304-4.194-4.206 4.068-9.522 7.194-14.772 8.55l-.264.054-.204-.192c-1.608-1.206-3.774-3.324-5.01-4.932l-.18-.234.066-.276c1.314-5.214 4.44-10.542 8.496-14.784-.444-.624-4.002-5.25-4.494-5.892-5.088 2.844-11.01 4.524-16.44 4.446l-.276-.012-.174-.24c-1.188-1.584-2.688-4.134-3.51-6.078l-.12-.252.144-.27c2.604-4.662 7.002-9.024 12.03-12.072-.276-.72-2.334-5.736-2.652-6.468-5.772 1.428-11.928 1.446-17.064-.048l-.282-.072-.096-.252c-.762-1.8-1.548-4.638-1.842-6.774l-.036-.294.204-.228c3.75-3.852 9.132-6.9 14.76-8.466-.12-.792-.846-6.348-.948-7.11-5.844-.114-11.862-1.662-16.458-4.416l-.252-.144-.024-.3a30.837 30.837 0 0 1-.192-3.522c0-1.254.072-2.496.192-3.498l.024-.288.252-.132c4.596-2.748 10.56-4.32 16.446-4.41.114-.804.9-6.51 1.002-7.29-5.646-1.656-10.986-4.746-14.736-8.598l-.204-.234.03-.264c.324-2.106 1.098-5.01 1.824-6.762l.12-.264.264-.084c5.208-1.488 11.358-1.428 17.076 0 .294-.726 2.502-5.778 2.808-6.504-5.004-3-9.384-7.332-12.036-12.018l-.12-.258.096-.27c.768-1.836 2.298-4.44 3.522-6.066l.18-.234.264-.006c5.376-.078 11.31 1.512 16.464 4.356.48-.606 3.966-5.142 4.416-5.76-4.044-4.14-7.182-9.444-8.52-14.736l-.072-.264.168-.234c1.242-1.584 3.378-3.702 4.95-4.98l.228-.198.282.09c5.214 1.296 10.506 4.404 14.766 8.478.648-.498 5.154-3.966 5.82-4.458-2.778-5.088-4.392-10.896-4.392-16.182v-.594l.264-.198c1.566-1.194 4.128-2.652 6.036-3.51l.264-.096.276.138c4.698 2.622 9.036 7.014 12.078 12.084.708-.288 5.658-2.298 6.384-2.586-.708-2.79-1.116-5.67-1.116-8.502 0-2.976.39-5.88 1.146-8.496l.066-.276.288-.102c1.782-.762 4.644-1.542 6.744-1.884l.318-.042.204.234c3.888 3.78 6.924 9.162 8.442 14.73.822-.132 6.51-.936 7.308-1.02.114-5.88 1.692-11.862 4.446-16.416l.126-.252.312-.036c2.022-.258 5.028-.258 7.008 0l.288.036.144.252c2.736 4.554 4.302 10.542 4.452 16.446.792.114 6.126.858 6.924.99 1.572-5.664 4.632-10.992 8.52-14.772l.21-.192.264.024c2.124.336 5.004 1.08 6.792 1.812l.258.126.09.264c.75 2.628 1.092 5.52 1.092 8.484 0 2.874-.402 5.802-1.092 8.616.726.276 5.898 2.514 6.624 2.838 3.042-5.022 7.374-9.414 12.042-12.054l.228-.114.282.102c1.854.762 4.476 2.274 6.09 3.534l.234.138s.018.618.018.792c0 5.172-1.638 10.95-4.362 16.014.612.48 4.884 3.804 5.49 4.29 4.266-4.05 9.582-7.164 14.796-8.514l.276-.078.216.198c1.59 1.248 3.756 3.39 4.992 4.938l.192.258-.096.252c-1.296 5.202-4.398 10.53-8.466 14.778.474.63 3.918 5.154 4.386 5.796 5.16-2.844 11.094-4.47 16.44-4.356h.288l.174.216c1.278 1.626 2.754 4.176 3.522 6.108l.114.24-.138.258c-2.55 4.59-6.918 8.958-11.916 12.102.288.714 2.334 5.706 2.634 6.42 5.67-1.458 11.826-1.506 17.004 0l.252.09.114.252c.762 1.83 1.536 4.656 1.86 6.756l.03.294-.222.222c-3.75 3.894-9.096 6.906-14.676 8.502.12.78.876 6.132.96 6.918 5.904.102 11.916 1.68 16.494 4.44l.234.15.018.306c.138.978.192 2.25.192 3.504 0 1.26-.054 2.496-.192 3.48m-107.742-83.646c-44.604 0-80.91 36.306-80.91 80.934 0 44.622 36.306 80.922 80.91 80.922 44.622 0 80.916-36.3 80.916-80.922 0-44.628-36.294-80.934-80.916-80.934" style="fill:#f7a81b;fill-opacity:1;fill-rule:nonzero;stroke:none;stroke-width:.99999994" transform="matrix(1.33333 0 0 -1.33333 -87.186 1163.23)"/>
    <path d="M173.425 836.252c-39.24 0-71.172-31.944-71.172-71.19 0-39.264 31.932-71.196 71.172-71.196 39.252 0 71.196 31.932 71.196 71.196 0 39.246-31.944 71.19-71.196 71.19m8.958-11.442c.684.558 1.596.378 2.49.192 14.304-3.462 24.81-9.504 35.058-20.28.726-.762 1.122-1.482 1.122-2.118 0-.06-.024-.162-.024-.252-.216-.984-1.314-1.506-2.292-1.974l-29.952-14.502c-1.182-.558-2.286-.618-3.144-.078-.882.504-1.434 1.488-1.53 2.778l-2.418 33.18c-.096 1.584.12 2.562.69 3.054m-55.602-20.34h.018c10.242 10.764 20.73 16.83 35.04 20.262.882.198 1.83.366 2.454-.198.612-.474.822-1.446.708-3.042l-2.418-33.174c-.078-1.272-.606-2.28-1.506-2.772-.87-.522-2.01-.498-3.144.066l-29.934 14.496c-.978.486-2.118 1.002-2.316 1.986-.096.684.234 1.476 1.098 2.376m-7.11-61.494c-1.296-.888-2.256-1.206-2.994-.942-.816.282-1.086 1.176-1.344 2.064-4.236 14.124-4.236 26.244-.054 40.494.366 1.224.882 1.896 1.53 2.13.96.348 1.962-.354 2.862-.972l27.516-18.72c1.038-.69 1.644-1.65 1.644-2.694 0-.996-.606-1.962-1.602-2.688zm45.168-38.952c-.666-.534-1.578-.372-2.49-.144-14.298 3.414-24.81 9.468-35.04 20.256-.744.768-1.098 1.452-1.098 2.058 0 .114 0 .18.018.3.144.942 1.296 1.5 2.262 1.962l29.952 14.538c1.17.546 2.298.57 3.18.048.864-.51 1.404-1.482 1.5-2.748l2.43-33.246c.09-1.578-.138-2.544-.714-3.024m8.532 41.442c-10.728 0-19.446 8.718-19.446 19.44a19.414 19.414 0 0 0 8.748 16.242c1.8 1.206 4.236.69 5.43-1.104 1.194-1.812.708-4.254-1.104-5.448a11.55 11.55 0 0 1-5.22-9.69c0-6.384 5.208-11.592 11.592-11.592 6.402 0 11.604 5.208 11.604 11.592 0 3.918-1.944 7.554-5.226 9.702a3.924 3.924 0 0 0-1.098 5.442c1.188 1.794 3.63 2.304 5.43 1.11 5.466-3.624 8.748-9.69 8.748-16.254 0-10.722-8.73-19.44-19.458-19.44m46.602-20.946c-10.206-10.74-20.658-16.788-35.04-20.238-1.218-.306-2.064-.21-2.586.222-.75.636-.654 1.896-.576 2.982l2.382 33.198c.15 1.29.66 2.268 1.572 2.808.882.48 2.01.438 3.126-.096l29.958-14.508c1.398-.69 2.148-1.368 2.292-2.112.144-.834-.462-1.572-1.128-2.256m10.092 62.358c.81-.27 1.128-1.164 1.374-2.04 4.206-14.148 4.206-26.25 0-40.506-.342-1.224-.834-1.896-1.488-2.166-.936-.288-1.968.39-2.826 1.026l-27.546 18.696c-1.056.702-1.68 1.668-1.68 2.694 0 1.014.606 1.974 1.68 2.712l27.546 18.666c1.242.9 2.214 1.176 2.94.918" style="fill:#f7a81b;fill-opacity:1;fill-rule:nonzero;stroke:none;stroke-width:.99999994" transform="matrix(1.33333 0 0 -1.33333 -87.186 1163.23)"/>
</svg>
